<svg xmlns="http://www.w3.org/2000/svg" viewBox="0 0 64 64" width="100%" height="100%" fill="none">
  <defs>
    <linearGradient id="fav-arrow-grad" x1="0.1" y1="0.9" x2="0.9" y2="0.1">
      <stop offset="0%" stop-color="#b45309" />
      <stop offset="50%" stop-color="#eab308" />
      <stop offset="100%" stop-color="#facc15" />
    </linearGradient>
  </defs>
  <!-- Dark badge background -->
  <rect width="64" height="64" rx="14" fill="#09090b" />
  <!-- Letter S -->
  <path d="M 18 20 C 16 17 13 15 9 15 C 4 15 1 18 1 23 C 1 27 4 30 9 31 L 11 31 C 13 32 14 33 14 34 C 14 36 12 37 9 37 C 6 37 4 36 3 34 L 0 35 C 1 39 5 41 9 41 C 14 41 18 38 18 33 C 18 29 15 26 10 25 L 8 25 C 6 24 5 23 5 22 C 5 21 6 20 8 20 C 11 20 13 21 14 23 Z" 
        transform="translate(11, 4) scale(0.9)" fill="#ffffff" />
  <!-- Golden Growth Arrow (M) -->
  <path d="M 23 23 L 28 35 C 29 37 31 38 33 37 L 44 20 L 42 19 L 49 16 L 49 24 L 46 22 L 35 39 C 32 43 27 43 24 40 L 19 25 Z" 
        fill="url(#fav-arrow-grad)" stroke="#09090b" stroke-width="0.8" />
  <!-- Letter G -->
  <path d="M 19 21 C 17 17 14 15 9 15 C 3 15 -1 20 -1 28 C -1 36 3 41 9 41 C 14 41 18 38 19 33 L 15 32 C 14 35 12 37 9 37 C 5 37 3 33 3 28 C 3 22 5 19 9 19 C 12 19 14 21 15 23 L 10 23 L 10 27 L 19 27 Z" 
        transform="translate(38, 4) scale(0.9)" fill="#ffffff" />
</svg>
